<svg width="182" height="182" viewBox="0 0 182 182" xmlns="http://www.w3.org/2000/svg">
	<g fill="none" fill-rule="evenodd">
		<circle cx="91" cy="91" r="91" fill="#101010" />
		<path d="M132.01 122l12.99-.59c-1.404-28.124-9.01-50.34-22.702-66.41L112 62.799C123.936 76.86 130.606 96.594 132.01 122zm-62.239 17c5.66 0 10.376-2.606 14.15-7.701 3.537-4.976 6.603-12.795 9.079-23.458l-12.853-3.2c-.943 4.977-2.004 9.123-3.183 12.44-2.123 5.925-4.717 9.005-7.547 9.005-3.773 0-7.075-2.962-9.905-8.649-3.537-6.99-5.306-16.705-5.306-29.145 0-10.781.826-21.326 2.477-31.633L43.594 55C41.825 66.61 41 77.63 41 88.292c0 15.757 2.476 28.197 7.546 37.202C53.616 134.498 60.692 139 69.771 139z" fill="#FFF" fill-rule="nonzero" />
	</g>
</svg>